# xmcd
#
# Track frame offsets:
#	150
#	15405
#	29133
#	47123
#	60143
#	74921
#	83366
#	106191
#	122730
#	136626
#	150653
#
# Disc length: 2231 seconds
#
# Revision: 0
# Processed by: cddbd v1.5.1PL2 Copyright (c) Steve Scherf et al.
# Submitted via: dBpowerAMP V4.0
#
DISCID=8408b50b
DTITLE=Rosie Flores - Christmasville
DYEAR=1900
DGENRE=county
TTITLE0=Little Saint Nick
TTITLE1=Christmas Every Day
TTITLE2=Blue Christmas
TTITLE3=Christmas on West Mistletoe
TTITLE4=Dance Of The Sugar Plum Fairies
TTITLE5=Christmasville
TTITLE6=Secret Santa
TTITLE7=My Christmas Tree Is Hung With Tears
TTITLE8=Run Run Rudolph
TTITLE9=Watcha Waitin' For Christmas
TTITLE10=Happy Christmas (War Is Over)
EXTD=
EXTT0=
EXTT1=
EXTT2=
EXTT3=
EXTT4=
EXTT5=
EXTT6=
EXTT7=
EXTT8=
EXTT9=
EXTT10=
PLAYORDER=
